<?xml version="1.0" standalone="no"?>
<!DOCTYPE svg PUBLIC "-//W3C//DTD SVG 20010904//EN"
 "http://www.w3.org/TR/2001/REC-SVG-20010904/DTD/svg10.dtd">
<svg version="1.0" xmlns="http://www.w3.org/2000/svg"
 width="1920.000000pt" height="1920.000000pt" viewBox="0 0 1920.000000 1920.000000"
 preserveAspectRatio="xMidYMid meet">
<metadata>
Created by potrace 1.11, written by Peter Selinger 2001-2013
</metadata>
<g transform="translate(0.000000,1920.000000) scale(0.100000,-0.100000)"
fill="#000000" stroke="none">
<path d="M16426 18745 c-6 -23 -37 -67 -152 -215 -48 -62 -366 -467 -424 -540
-299 -378 -348 -441 -491 -625 -56 -71 -111 -142 -122 -156 -12 -15 -62 -80
-112 -144 -49 -65 -119 -155 -155 -200 -36 -46 -126 -161 -200 -256 -155 -197
-498 -627 -544 -680 -17 -20 -38 -44 -46 -55 -8 -10 -71 -87 -140 -169 -69
-83 -141 -170 -160 -194 -19 -24 -40 -48 -45 -55 -8 -9 -92 -110 -183 -221
-76 -92 -323 -388 -352 -420 -19 -23 -51 -61 -72 -85 -50 -61 -66 -81 -294
-340 -65 -74 -130 -148 -144 -164 -14 -15 -41 -46 -61 -67 -20 -21 -69 -75
-110 -121 -41 -45 -90 -98 -109 -119 -19 -20 -44 -48 -55 -61 -11 -12 -43 -48
-70 -78 -75 -84 -145 -166 -161 -188 -19 -27 -3 -39 61 -47 43 -5 119 -16 135
-20 63 -15 97 -20 200 -30 30 -3 66 -7 80 -10 14 -2 42 -7 62 -10 21 -2 58 -9
83 -15 25 -6 62 -13 83 -16 20 -3 40 -8 44 -11 5 -2 18 -6 29 -8 120 -23 658
-211 847 -296 26 -12 65 -30 87 -40 117 -52 202 -92 316 -148 194 -95 204 -90
213 119 3 74 8 146 11 160 3 14 8 41 11 60 26 153 96 362 184 555 45 98 184
374 215 426 14 24 32 58 40 74 26 55 199 333 280 451 76 110 232 323 244 334
4 3 18 21 33 42 15 20 33 42 40 50 7 7 42 51 78 98 36 47 74 96 86 110 12 14
68 81 124 150 168 204 267 315 413 466 141 146 184 177 212 154 32 -27 175
-348 225 -505 24 -78 67 -233 74 -267 2 -13 11 -57 20 -98 20 -96 22 -114 40
-255 19 -145 29 -392 30 -700 1 -229 -8 -457 -19 -475 -2 -3 -6 -25 -9 -50 -3
-25 -8 -56 -11 -70 -3 -14 -7 -36 -10 -50 -3 -14 -7 -36 -10 -50 -4 -14 -8
-38 -11 -55 -12 -67 -77 -321 -104 -403 -70 -212 -271 -621 -402 -817 -93
-140 -128 -184 -226 -285 -74 -75 -81 -86 -76 -123 4 -36 13 -45 130 -117 145
-90 346 -217 369 -233 11 -8 74 -43 140 -78 134 -71 189 -81 238 -43 40 32
205 246 304 394 194 292 408 658 502 860 132 283 305 795 335 995 4 22 8 47
11 55 5 18 11 65 20 145 4 33 9 71 11 85 6 32 5 980 0 1085 -3 44 -7 100 -10
125 -3 25 -8 68 -11 95 -5 44 -14 97 -30 186 -3 15 -19 80 -36 145 -17 66 -32
126 -34 134 -109 469 -344 1068 -615 1565 -15 28 -51 95 -80 150 -203 381
-347 618 -635 1041 -38 55 -68 112 -76 143 -14 57 -42 70 -53 26z"/>
<path d="M2751 18704 c-21 -24 -179 -274 -299 -474 -25 -41 -53 -86 -62 -100
-9 -14 -49 -81 -90 -150 -40 -69 -93 -158 -117 -198 -23 -40 -43 -76 -43 -80
0 -4 -10 -23 -23 -42 -47 -70 -229 -421 -321 -620 -214 -460 -417 -1040 -490
-1400 -3 -14 -8 -36 -11 -50 -3 -14 -8 -38 -10 -54 -2 -15 -6 -35 -9 -45 -3
-9 -8 -36 -11 -61 -3 -25 -8 -52 -10 -60 -2 -8 -7 -37 -10 -65 -3 -27 -7 -59
-9 -70 -2 -11 -7 -54 -11 -95 -4 -41 -9 -86 -11 -100 -4 -25 -16 -483 -17
-665 -1 -97 10 -284 18 -308 2 -7 6 -32 9 -57 22 -176 124 -590 175 -715 5
-11 32 -87 61 -170 94 -269 203 -501 383 -810 39 -67 299 -467 319 -489 5 -6
44 -60 88 -119 92 -126 159 -201 200 -222 34 -17 46 -14 155 48 33 19 83 47
110 62 28 15 104 60 170 99 66 39 124 73 129 75 37 16 237 154 245 170 23 42
9 78 -58 154 -14 15 -58 72 -98 125 -40 53 -77 102 -83 109 -60 73 -279 469
-343 623 -115 274 -235 661 -252 813 -3 28 -8 53 -10 56 -4 7 -15 172 -21 306
-4 118 -5 504 0 580 5 75 15 199 21 245 16 120 28 194 45 279 11 54 22 107 25
120 37 195 194 670 269 820 56 110 76 102 272 -115 408 -452 730 -852 976
-1214 95 -139 228 -347 228 -357 0 -4 6 -14 14 -22 7 -9 28 -43 46 -76 18 -33
60 -109 93 -170 249 -454 366 -822 383 -1204 3 -57 9 -112 15 -122 16 -31 55
-22 188 42 69 34 160 77 201 96 41 19 98 45 125 58 28 12 84 37 125 54 41 18
84 36 95 41 68 31 261 102 440 161 75 25 341 98 419 115 40 9 247 48 311 59
48 8 228 27 255 27 73 0 80 51 17 119 -23 25 -73 80 -112 123 -38 43 -75 84
-81 90 -17 18 -253 285 -314 356 -30 35 -60 68 -65 74 -6 6 -78 90 -160 186
-82 96 -152 177 -155 180 -3 3 -72 86 -154 185 -82 99 -154 185 -160 190 -6 6
-88 102 -181 215 -93 113 -172 207 -175 210 -6 5 -321 388 -374 454 -17 21
-43 53 -57 70 -39 46 -560 698 -589 736 -14 18 -30 38 -35 44 -6 6 -35 42 -65
81 -30 38 -61 77 -67 85 -7 8 -65 83 -129 165 -149 191 -161 207 -177 225 -7
8 -44 56 -82 105 -39 50 -75 97 -82 105 -14 17 -426 551 -463 600 -14 18 -43
57 -65 85 -22 29 -51 67 -65 85 -79 106 -286 369 -308 393 -32 34 -62 34 -91
1z"/>
<path d="M8723 12973 c-5 -1 -165 -4 -358 -7 -192 -2 -374 -7 -404 -10 -110
-11 -167 -17 -196 -21 -37 -6 -84 -12 -150 -20 -27 -4 -57 -8 -65 -10 -8 -3
-33 -7 -55 -10 -52 -7 -94 -13 -125 -19 -14 -3 -63 -12 -110 -20 -129 -23
-143 -26 -170 -32 -14 -3 -36 -8 -50 -10 -14 -3 -56 -11 -95 -20 -38 -9 -77
-17 -85 -19 -8 -2 -37 -9 -65 -15 -27 -6 -58 -13 -67 -15 -301 -62 -1102 -348
-1548 -553 -36 -16 -117 -53 -180 -82 -227 -104 -535 -261 -669 -342 -34 -21
-64 -38 -66 -38 -3 0 -251 -145 -310 -181 -16 -10 -50 -30 -75 -43 -25 -14
-81 -48 -125 -75 -44 -28 -93 -58 -110 -67 -93 -52 -466 -306 -665 -453 -147
-108 -156 -139 -51 -175 23 -9 56 -22 74 -30 17 -8 75 -33 127 -56 191 -84
555 -282 793 -432 60 -37 111 -68 114 -68 3 0 22 -13 43 -30 21 -16 41 -30 44
-30 9 0 373 -254 386 -270 3 -3 21 -17 40 -30 38 -26 267 -208 315 -251 17
-14 55 -48 85 -74 158 -136 226 -201 465 -440 304 -304 433 -446 661 -730 153
-189 426 -572 521 -730 7 -11 40 -66 75 -123 35 -56 73 -119 86 -140 12 -20
27 -46 32 -57 6 -11 20 -36 31 -55 12 -19 37 -64 57 -100 19 -36 53 -96 75
-135 113 -202 389 -780 462 -970 109 -284 280 -811 362 -1115 40 -151 110
-432 117 -470 2 -14 9 -45 14 -70 6 -25 13 -56 15 -70 3 -14 14 -74 26 -135
11 -60 25 -139 31 -175 5 -36 12 -76 15 -90 3 -14 14 -74 25 -135 11 -60 22
-121 25 -135 3 -13 7 -42 10 -65 3 -22 8 -51 10 -65 11 -59 21 -140 30 -235 3
-27 7 -61 10 -75 2 -14 7 -56 10 -95 3 -38 8 -88 10 -110 2 -22 7 -69 10 -105
3 -36 8 -83 10 -105 2 -22 7 -76 10 -120 3 -44 8 -107 11 -140 10 -130 25
-527 28 -738 1 -129 3 -140 22 -156 21 -17 22 -18 3 -30 -20 -12 -20 -12 0
-39 55 -76 377 -382 791 -752 113 -101 240 -215 284 -254 43 -39 84 -74 91
-78 12 -7 70 33 160 113 26 23 144 123 309 262 27 23 70 60 95 81 25 22 54 47
65 55 10 9 23 21 30 26 6 6 83 73 171 150 310 270 435 393 435 426 2 225 18
614 34 829 3 36 8 99 11 140 3 41 7 100 10 130 3 30 7 84 10 120 3 36 7 81 10
100 2 19 7 70 10 113 4 43 8 86 10 95 1 9 6 49 9 87 4 39 9 84 11 100 2 17 7
53 10 80 3 28 8 64 10 80 3 17 7 46 9 65 2 19 10 67 16 105 6 39 13 81 15 95
9 66 17 110 30 165 7 33 16 78 19 100 4 22 11 56 16 75 8 29 38 167 54 245 3
11 12 54 21 95 9 41 18 82 20 92 8 38 117 476 125 503 5 17 17 57 26 90 9 33
20 71 24 85 4 14 16 52 25 85 42 148 158 492 210 625 8 19 38 98 69 175 162
414 408 911 653 1319 45 76 83 142 83 147 0 5 4 9 8 9 5 0 15 12 23 27 25 48
190 294 297 443 239 330 470 617 677 838 220 235 520 515 845 787 52 44 97 82
100 85 10 11 187 147 275 211 190 138 569 382 735 473 317 173 727 371 787
381 45 7 63 21 63 49 -1 34 -23 55 -192 178 -13 9 -50 36 -83 60 -33 24 -89
64 -125 88 -36 24 -67 46 -70 50 -7 8 -291 192 -422 273 -202 125 -415 246
-683 389 -102 55 -562 283 -645 321 -447 201 -814 344 -1165 455 -210 66 -466
140 -545 156 -14 3 -62 14 -107 25 -45 11 -92 22 -105 25 -13 2 -57 11 -98 19
-83 18 -97 20 -220 42 -47 8 -94 17 -106 19 -12 2 -45 7 -75 11 -30 3 -61 8
-69 10 -14 4 -44 8 -146 21 -23 2 -51 7 -62 9 -12 2 -52 7 -89 10 -37 4 -79 8
-93 11 -55 9 -349 18 -575 17 -351 -1 -1083 -1 -1362 0 -134 1 -246 1 -250 0z"/>
<path d="M4394 6840 c-39 -15 -40 -26 -30 -170 10 -139 12 -159 20 -220 12
-91 16 -112 32 -175 9 -33 18 -69 20 -79 24 -124 144 -441 222 -586 151 -283
406 -555 685 -728 166 -104 427 -206 607 -238 14 -3 32 -7 40 -9 8 -2 38 -7
66 -10 28 -3 61 -8 75 -11 13 -3 153 -7 312 -10 274 -4 288 -3 306 15 24 24
25 23 -45 276 -88 319 -138 461 -231 654 -40 82 -169 305 -195 336 -5 6 -39
51 -75 100 -85 114 -322 352 -433 434 -47 34 -93 69 -104 78 -10 8 -72 46
-138 83 -244 140 -489 220 -778 255 -86 11 -333 14 -356 5z"/>
<path d="M14175 6833 c-44 -6 -100 -14 -124 -18 -271 -39 -596 -184 -870 -390
-112 -84 -323 -286 -410 -394 -174 -214 -345 -532 -451 -838 -22 -66 -89 -295
-96 -333 -3 -14 -14 -62 -24 -108 -37 -155 -42 -151 193 -151 100 0 241 -1
312 -1 72 -1 146 1 165 4 159 28 216 41 308 72 260 85 561 271 777 480 33 32
167 183 193 219 102 135 205 328 267 498 36 102 88 299 99 378 4 25 9 58 12
74 3 15 7 46 9 69 28 305 26 409 -5 440 -15 15 -253 14 -355 -1z"/>
</g>
</svg>
