<svg id="Layer_1" data-name="Layer 1" xmlns="http://www.w3.org/2000/svg" viewBox="0 0 555.41 606.15"><defs><style>.cls-1{fill:#f06322;}.cls-2{fill:#040404;}</style></defs><title>logo-thebrownfox</title><path class="cls-1" d="M494.17,13.45c.82,4.49,4,7.73,6.39,11.28a355.1,355.1,0,0,1,19.7,33.75,222.32,222.32,0,0,1,14.22,32.38c2.33,6.87,4.06,14.09,5.93,21.16,3.78,14.24,2.29,28.52,2.65,42.8.38,15.12-4.4,29.09-9.86,42.93C529,208.47,522.67,218,516.61,227.67a141.36,141.36,0,0,1-9.86,13.58c-1.72,2.14-3.6,2.37-5.9,1.27-7.57-3.61-14.29-8.64-21.48-12.88-2.06-1.21-2-3.06-.31-4.67,9.22-8.63,14.25-20,19.22-31.11,3-6.69,4.36-14.11,5.88-21.4,2.38-11.44,1.59-22.93,1.11-34.32a97.86,97.86,0,0,0-9-37.81c-.11-.22-.27-.42-.37-.65-2.84-6.47-2.81-6.44-7.75-1.52-9.3,9.26-17.31,19.59-25.45,29.85a197,197,0,0,0-21.07,32.89c-5.6,11-10.91,22.45-10.66,35.35.07,3.5-1.37,3.81-4.11,2.43-6.78-3.42-13.65-6.66-20.74-9.4-11.27-4.36-22.62-8.44-34.82-9.46-3.21-.27-6.28-1.33-9.57-1.47-2.73-.12-.94-1.84-.2-2.69,4.32-5,8.79-9.9,13.25-14.77,16.1-17.6,31-36.17,46.25-54.5,15.61-18.8,30.35-38.32,45.47-57.53q11.81-15,23.59-30a18.67,18.67,0,0,0,3.36-5.36Z"/><path class="cls-1" d="M280.86,196.74c13.82-.18,27.61-.92,41.49.73a270.24,270.24,0,0,1,35.16,6.41c28.14,7.18,54.49,18.9,79.82,32.85a334.67,334.67,0,0,1,40.15,26c1.08.82,2.57,1.65,2.35,3.16s-2.08.93-3.15,1.42A293.33,293.33,0,0,0,449.75,281a224.61,224.61,0,0,0-30.35,21.14c-12.3,10.36-24.3,21-34.68,33.48a304.82,304.82,0,0,0-26.69,37,292.31,292.31,0,0,0-31.11,70.82c-3.75,13-6.67,26.1-9.41,39.25-1.78,8.55-2.9,17.33-3.82,26.11-1.23,11.65-2,22.93-2.7,35-.33,2,.32,9-.47,13.43-.15.85-.29,1.41-1.19,1.54-4.15-1.86-8.73-2.19-13-2.12-10.41.15-19.65.1-31.25,1.11a4.89,4.89,0,0,1-1.46-.15c-10.93.14-19-1-28.55-.71-1.92-.77-1.89-2.45-1.88-4.08.11-17.12-1.39-34.16-3.31-51.14-.84-7.4-2.49-14.76-3.69-22.11a305.83,305.83,0,0,0-8-34.12c-2.14-7.56-4.84-14.92-7.32-22.36a174.88,174.88,0,0,0-8.5-20.24c-8.56-17.87-18.22-35-30.07-51.06a283.23,283.23,0,0,0-36.41-40.13,253.12,253.12,0,0,0-50.54-35.87,141.54,141.54,0,0,0-18.88-8.87c-3.19-1.16-.88-2.94.23-3.78,4.47-3.39,9.08-6.6,13.71-9.77,9.36-6.39,19.22-12,29-17.69a310.46,310.46,0,0,1,37.25-18.12c13.94-5.82,28.14-11,42.83-14.38a308.7,308.7,0,0,1,31.14-5.53c12.62-1.57,25.16-.75,37.72-1.16"/><path class="cls-1" d="M12.62,146c-.82-26.12,6.17-48.4,15.35-70.3,8.57-20.45,20.25-39.11,31.93-57.81,2.57-4.12,2.84-4.12,6-.13,4,5.05,7.93,10.21,11.86,15.34q26.08,34,53,67.39c11.06,13.68,22.42,27.11,33.74,40.57q14.58,17.34,29.85,34.07c.68.75,1.49,1.43,1,2.58s-1.46.73-2.29.8c-15.88,1.4-31,5.77-45.63,11.89-6.44,2.69-12.71,5.71-19,8.78-2.08,1-3.4,1-3.4-1.73,0-16.29-6.64-30.48-14.37-44.21-11.82-21-27.27-39.33-43.41-57.07-3.62-4-4.67-3.85-6.67,1.06a149,149,0,0,0-9.36,32.87c-1.86,11.74-1.54,23.44-1,35.08.49,9.65,3.62,19,7.08,28.1A108,108,0,0,0,76.6,225.54c1.43,1.66,1.91,3.17-.29,4.66-7.11,4.82-14.67,8.87-22.1,13.14-1.41.81-2.66.19-3.67-.93-1.17-1.3-2.42-2.54-3.45-3.95-10.39-14.05-19.84-28.77-25.84-45.2C15.46,177.45,11.13,161.14,12.62,146Z"/><path class="cls-2" d="M372.4,460.68c-4.61,0-7.86-.08-11.11,0-1.89.07-2.48-.67-2.12-2.43,4.22-20.75,12.3-39.48,29.11-53.25,12.43-10.17,26.71-15.64,43-15.12,2,.06,2.57.65,2.58,2.59.22,25.73-9,46.72-31.52,60.33C393,458.52,382.37,461.61,372.4,460.68Z"/><path class="cls-2" d="M176.1,460.68c-19.46-.06-35.64-7.24-48.13-22.3-7.31-8.82-11.16-19.29-13.92-30.22-1.32-5.22-1.56-10.58-1.92-15.92-.13-1.88.69-2.28,2.39-2.33a63.8,63.8,0,0,1,46.05,16.72c12.57,11.19,20.31,25.28,24.58,41.42.86,3.25,1.88,6.46,2.71,9.71.49,1.91,0,3.08-2.41,3C182.35,460.56,179.22,460.68,176.1,460.68Z"/><path d="M271.15,592.7s39.51-33,39.51-35a3.16,3.16,0,0,0-2-1s-71.93-1-74,0c-.18.09-1.42.43-1,1C237.8,563.61,271.15,592.7,271.15,592.7Z"/></svg>