<svg xmlns="http://www.w3.org/2000/svg" viewBox="0 0 606.15 606.15"><title>logo-thebrownfox</title><g id="Newly_drawn" data-name="Newly drawn"><g id="Nose"><polyline points="257.59 556.7 335.59 556.7 296.59 593.7 257.59 556.7"/></g><g id="Left_eye" data-name="Left eye"><path d="M137.09,390.2s63-8,75,70C212.09,460.2,143.09,469.2,137.09,390.2Z"/></g><g id="Right_eye" data-name="Right eye"><path d="M459.09,390.2s-63-8-75,70C384.09,460.2,453.09,469.2,459.09,390.2Z"/></g><g id="Head"><path d="M257.59,556.7h78s-12-214.82,169-293.49c0,0-187-165.4-415,0C89.59,263.21,258.59,323.73,257.59,556.7Z" style="fill:#f06322"/></g><g id="Left_ear" data-name="Left ear"><path d="M221.09,178.2s-52-62-133-165c0,0-105,131-11,232l27-16s-55-59-15-136c0,0,57,50,61,107C150.09,200.2,191.59,180.7,221.09,178.2Z" style="fill:#c94f1f"/></g><g id="Right_ear" data-name="Right ear"><path d="M386,178.2s52-62,133-165c0,0,105,131,11,232l-27-16s55-59,15-136c0,0-57,50-61,107C457,200.2,415.48,180.7,386,178.2Z" style="fill:#b5411d"/></g></g><g id="Patchwork"><path d="M343.59,323.53V401H226.73S214,365.37,175.3,323.53Z" style="fill:#db5621"/><path d="M270.59,190.7s97-12,194,45v48.93s-37.32,24.24-46.91,38.9H270.59Z" style="fill:#cc501f"/><path d="M89.59,263.7s58.07,21.16,101,78.08l80-.08V191S187.59,192.7,89.59,263.7Z" style="fill:#bc4520"/><path d="M343.59,235.7H464.67s31.92,19,39.91,27.51c0,0-124,39.49-161,207.49Z" style="fill:#e25923"/><path d="M224.53,198.64l-.44,57.56h76V189.65S257,189.09,224.53,198.64Z" style="fill:#c44d1e"/></g></svg>